<svg xmlns="http://www.w3.org/2000/svg" xmlns:xlink="http://www.w3.org/1999/xlink" viewBox="0 0 280 250" preserveAspectRatio="xMidYMid" style="display: block; shape-rendering: auto; background: rgba(253, 253, 253, 0);" width="280" height="250"><style type="text/css">
  .ld-text text {
    text-anchor: middle;
    dominant-baseline: middle;
    font-size: 80px;
    opacity: 0;
    user-select: none;
    pointer-events: none;
  }
</style>
<g style="transform-origin:140px 125px;transform:scale(1)" class="ld-text">
<g transform="translate(140,125)">
  <g transform="scale(1.0000) translate(0,0)"><g class="path" style="opacity: 1; transform-origin: -112.8px -4.58px; transform: matrix3d(0.91, 0, 0, 0, 0, 0.91, 0, 0, 0, 0, 0.91, 0, 0, 0, 0, 1); animation: 1.40845s linear -0.84507s infinite normal forwards running animate-ki3oye0whzd; transform-box: view-box;"><path d="M5.60 2.69L9.68 2.69L11.84-9.15Q17.76-9.15 20.64-9.63L20.64-9.63L21.68-9.87Q20.56-4.27 19.20 2.69L19.20 2.69L29.12 2.69L28.96 4.13L18.96 4.13Q14.96 24.77 14.96 29.01L14.96 29.01Q14.96 31.57 17.68 31.57Q20.40 31.57 22.64 28.13Q24.88 24.69 25.84 20.69L25.84 20.69L27.28 21.17Q24.32 33.81 15.04 33.81L15.04 33.81Q11.20 33.81 8.64 31.69Q6.08 29.57 6.08 25.77Q6.08 21.97 9.36 4.13L9.36 4.13L5.44 4.13L5.60 2.69" style="fill: rgb(81, 155, 204);" transform="translate(-130.080,-16.545)"></path></g><g class="path" style="opacity: 1; transform-origin: -85.84px 1.34px; transform: matrix3d(0.91, 0, 0, 0, 0, 0.91, 0, 0, 0, 0, 0.91, 0, 0, 0, 0, 1); animation: 1.40845s linear -0.760563s infinite normal forwards running animate-ki3oye0whzd; transform-box: view-box;"><path d="M47.76 1.97L47.76 1.97Q57.92 1.97 57.92 10.05L57.92 10.05Q57.92 15.09 53.16 17.69Q48.40 20.29 39.60 20.37L39.60 20.37Q39.44 23.25 39.44 24.93L39.44 24.93Q39.44 28.53 41.08 30.25Q42.72 31.97 45.20 31.97Q47.68 31.97 49.72 31.01Q51.76 30.05 52.96 28.73Q54.16 27.41 55.04 25.97L55.04 25.97Q56.64 23.33 56.64 22.61L56.64 22.61L58.08 23.25Q57.84 24.53 56.64 26.65Q55.44 28.77 54 30.13Q52.56 31.49 49.76 32.65Q46.96 33.81 43.52 33.81L43.52 33.81Q37.04 33.81 33.72 30.73Q30.40 27.65 30.40 22.29L30.40 22.29Q30.40 12.77 35.12 7.37Q39.84 1.97 47.76 1.97 zM55.92 10.05Q55.92 7.41 54.36 5.69Q52.80 3.97 49.72 3.97Q46.64 3.97 43.72 7.65Q40.80 11.33 39.84 18.53L39.84 18.53Q55.92 18.45 55.92 10.05L55.92 10.05" style="fill: rgb(81, 155, 204);" transform="translate(-130.080,-16.545)"></path></g><g class="path" style="opacity: 1; transform-origin: -53.36px 1.34px; transform: matrix3d(0.91, 0, 0, 0, 0, 0.91, 0, 0, 0, 0, 0.91, 0, 0, 0, 0, 1); animation: 1.40845s linear -0.676056s infinite normal forwards running animate-ki3oye0whzd; transform-box: view-box;"><path d="M81.52 16.37Q79.84 14.69 79.84 12.29Q79.84 9.89 81.52 8.17Q83.20 6.45 85.60 6.45L85.60 6.45Q86.32 6.45 87.44 6.77L87.44 6.77Q85.92 3.97 81.76 3.97Q77.60 3.97 74.40 9.25Q71.20 14.53 71.20 24.93L71.20 24.93Q71.20 28.53 72.84 30.25Q74.48 31.97 76.96 31.97Q79.44 31.97 81.48 31.01Q83.52 30.05 84.72 28.73Q85.92 27.41 86.80 25.97L86.80 25.97Q88.40 23.33 88.40 22.61L88.40 22.61L89.84 23.25Q89.60 24.53 88.40 26.65Q87.20 28.77 85.76 30.13Q84.32 31.49 81.52 32.65Q78.72 33.81 75.28 33.81L75.28 33.81Q68.80 33.81 65.48 30.73Q62.16 27.65 62.16 22.29L62.16 22.29Q62.16 12.77 66.92 7.37Q71.68 1.97 79.84 1.97L79.84 1.97Q85.36 1.97 88.32 4.77Q91.28 7.57 91.28 12.13L91.28 12.13Q91.28 15.01 89.56 16.53Q87.84 18.05 85.52 18.05Q83.20 18.05 81.52 16.37" style="fill: rgb(81, 155, 204);" transform="translate(-130.080,-16.545)"></path></g><g class="path" style="opacity: 1; transform-origin: -18.24px -9.02px; transform: matrix3d(0.91, 0, 0, 0, 0, 0.91, 0, 0, 0, 0, 0.91, 0, 0, 0, 0, 1); animation: 1.40845s linear -0.591549s infinite normal forwards running animate-ki3oye0whzd; transform-box: view-box;"><path d="M124.64 32.21L124.64 32.21Q126.56 32.21 128.64 29.97L128.64 29.97L129.84 30.93Q129.28 32.05 127.36 32.93Q125.44 33.81 123.12 33.81L123.12 33.81Q115.84 33.81 115.84 27.25L115.84 27.25Q115.84 24.45 117.28 17.25Q118.72 10.05 118.72 7.81L118.72 7.81Q118.72 4.37 115.44 4.37L115.44 4.37Q112.72 4.37 110.20 8.05Q107.68 11.73 106.08 18.05L106.08 18.05L103.44 33.09L93.84 33.09L102.72-17.15Q100.32-16.91 98.72-14.91L98.72-14.91L97.52-15.87Q99.92-18.75 103.56-18.75Q107.20-18.75 109.20-16.91Q111.20-15.07 111.20-11.71L111.20-11.71Q111.20-11.07 111.04-9.63L111.04-9.63L107.68 9.33Q110.96 1.97 117.84 1.97L117.84 1.97Q122.56 1.97 125.20 4.65Q127.84 7.33 127.84 12.05L127.84 12.05Q127.84 14.53 126.32 21.61Q124.80 28.69 124.64 32.21" style="fill: rgb(81, 155, 204);" transform="translate(-130.080,-16.545)"></path></g><g class="path" style="opacity: 1; transform-origin: 11.64px 1.34px; transform: matrix3d(0.91, 0, 0, 0, 0, 0.91, 0, 0, 0, 0, 0.91, 0, 0, 0, 0, 1); animation: 1.40845s linear -0.507042s infinite normal forwards running animate-ki3oye0whzd; transform-box: view-box;"><path d="M148.40 30.93Q146 33.81 142.40 33.81Q138.80 33.81 136.76 31.97Q134.72 30.13 134.72 27.17L134.72 27.17Q134.72 26.13 136 18.45L136 18.45L138.64 4.13L135.28 4.13L135.44 2.69L138.88 2.69Q144.80 2.69 147.60 2.21L147.60 2.21L148.72 1.97L143.20 32.21Q145.60 31.97 147.20 29.97L147.20 29.97L148.40 30.93" style="fill: rgb(81, 155, 204);" transform="translate(-130.080,-16.545)"></path></g><g class="path" style="opacity: 1; transform-origin: 15.4px -26.38px; transform: matrix3d(0.91, 0, 0, 0, 0, 0.91, 0, 0, 0, 0, 0.91, 0, 0, 0, 0, 1); animation: 1.40845s linear -0.422535s infinite normal forwards running animate-ki3oye0whzd; transform-box: view-box;"><path d="M141.36-5.71Q139.68-7.39 139.68-9.79Q139.68-12.19 141.36-13.91Q143.04-15.63 145.44-15.63Q147.84-15.63 149.56-13.91Q151.28-12.19 151.28-9.79Q151.28-7.39 149.56-5.71Q147.84-4.03 145.44-4.03Q143.04-4.03 141.36-5.71" style="fill: rgb(81, 155, 204);" transform="translate(-130.080,-16.545)"></path></g><g class="path" style="opacity: 1; transform-origin: 35.28px -6.58px; transform: matrix3d(0.91, 0, 0, 0, 0, 0.91, 0, 0, 0, 0, 0.91, 0, 0, 0, 0, 1); animation: 1.40845s linear -0.338028s infinite normal forwards running animate-ki3oye0whzd; transform-box: view-box;"><path d="M171.76-18.75L171.76-18.75Q174.64-18.75 176.52-16.59Q178.40-14.43 178.40-10.11Q178.40-5.79 174.96 2.69L174.96 2.69L178 2.69L177.84 4.13L174.32 4.13Q171.60 10.93 171.60 14.45L171.60 14.45L170.16 14.45Q170.16 10.29 172.80 4.13L172.80 4.13L168.16 4.13Q165.76 16.69 162 38.69L162 38.69L152.32 38.69L158.48 4.13L153.60 4.13L153.76 2.69L158.72 2.69L160-4.19Q161.28-12.11 163.96-15.43Q166.64-18.75 171.76-18.75 zM176.88-10.27L176.88-10.27Q176.88-13.15 175.56-15.23Q174.24-17.31 172.32-17.31L172.32-17.31Q171.52-14.19 168.40 2.69L168.40 2.69L173.36 2.69Q176.88-5.31 176.88-10.27" style="fill: rgb(81, 155, 204);" transform="translate(-130.080,-16.545)"></path></g><g class="path" style="opacity: 1; transform-origin: 64.8px 8.34px; transform: matrix3d(0.91, 0, 0, 0, 0, 0.91, 0, 0, 0, 0, 0.91, 0, 0, 0, 0, 1); animation: 1.40845s linear -0.253521s infinite normal forwards running animate-ki3oye0whzd; transform-box: view-box;"><path d="M182.24 3.57L182.24 3.57Q180.32 3.57 178.24 5.81L178.24 5.81L177.04 4.85Q177.60 3.73 179.52 2.85Q181.44 1.97 183.76 1.97L183.76 1.97Q191.04 1.97 191.04 8.53L191.04 8.53Q191.04 11.33 189.52 17.69Q188 24.05 188 26.29L188 26.29Q188 30.13 191.20 30.13L191.20 30.13Q193.84 30.13 196.36 26.53Q198.88 22.93 200.48 16.85L200.48 16.85L203.12 2.69Q209.04 2.69 211.76 2.21L211.76 2.21L212.80 1.97L207.76 30.29Q206.32 38.53 201.08 43.17Q195.84 47.81 187.52 47.81L187.52 47.81Q182.48 47.81 179.72 46.09Q176.96 44.37 176.96 41.61Q176.96 38.85 178.64 37.21Q180.32 35.57 183.40 35.57Q186.48 35.57 189.12 36.57Q191.76 37.57 192.96 37.73L192.96 37.73L192.80 39.17Q191.44 39.01 188.88 38.05Q186.32 37.09 183.80 37.09Q181.28 37.09 179.96 38.21Q178.64 39.33 178.64 41.45Q178.64 43.57 180.96 44.89Q183.28 46.21 186.72 46.21L186.72 46.21Q195.04 46.21 196.96 36.21L196.96 36.21L198.96 25.17Q195.60 32.53 188.80 32.53L188.80 32.53Q184.16 32.53 181.64 29.89Q179.12 27.25 179.12 22.45L179.12 22.45Q179.12 19.97 180.60 13.53Q182.08 7.09 182.24 3.57" style="fill: rgb(81, 155, 204);" transform="translate(-130.080,-16.545)"></path></g><g class="path" style="opacity: 1; transform-origin: 91.8px 11.38px; transform: matrix3d(0.91, 0, 0, 0, 0, 0.91, 0, 0, 0, 0, 0.91, 0, 0, 0, 0, 1); animation: 1.40845s linear -0.169014s infinite normal forwards running animate-ki3oye0whzd; transform-box: view-box;"><path d="M217.76 32.05Q216.08 30.37 216.08 27.97Q216.08 25.57 217.76 23.85Q219.44 22.13 221.84 22.13Q224.24 22.13 225.96 23.85Q227.68 25.57 227.68 27.97Q227.68 30.37 225.96 32.05Q224.24 33.73 221.84 33.73Q219.44 33.73 217.76 32.05" style="fill: rgb(81, 155, 204);" transform="translate(-130.080,-16.545)"></path></g><g class="path" style="opacity: 1; transform-origin: 110.76px 11.38px; transform: matrix3d(0.91, 0, 0, 0, 0, 0.91, 0, 0, 0, 0, 0.91, 0, 0, 0, 0, 1); animation: 1.40845s linear -0.084507s infinite normal forwards running animate-ki3oye0whzd; transform-box: view-box;"><path d="M236.72 32.05Q235.04 30.37 235.04 27.97Q235.04 25.57 236.72 23.85Q238.40 22.13 240.80 22.13Q243.20 22.13 244.92 23.85Q246.64 25.57 246.64 27.97Q246.64 30.37 244.92 32.05Q243.20 33.73 240.80 33.73Q238.40 33.73 236.72 32.05" style="fill: rgb(81, 155, 204);" transform="translate(-130.080,-16.545)"></path></g><g class="path" style="opacity: 1; transform-origin: 129.72px 11.38px; transform: matrix3d(0.91, 0, 0, 0, 0, 0.91, 0, 0, 0, 0, 0.91, 0, 0, 0, 0, 1); animation: 1.40845s linear 0s infinite normal forwards running animate-ki3oye0whzd; transform-box: view-box;"><path d="M255.68 32.05Q254 30.37 254 27.97Q254 25.57 255.68 23.85Q257.36 22.13 259.76 22.13Q262.16 22.13 263.88 23.85Q265.60 25.57 265.60 27.97Q265.60 30.37 263.88 32.05Q262.16 33.73 259.76 33.73Q257.36 33.73 255.68 32.05" style="fill: rgb(81, 155, 204);" transform="translate(-130.080,-16.545)"></path></g></g><text dy="0.35em" fill="#519bcc" font-family="Sail" font-size="80">techify...</text>
</g>
</g><style type="text/css">@keyframes animate-ki3oye0whzd { 0.00% {transform: translate(0.00px,0.00px) rotate(0.00deg) scale(0.91, 0.91) skew(0deg, 0.00deg) ;opacity: 1.00;}4.00% {transform: translate(0.00px,0.00px) rotate(0.00deg) scale(0.91, 0.91) ;}8.00% {animation-timing-function: cubic-bezier(0.69,0.60,0.35,0.27);transform: translate(0.00px,0.00px) rotate(0.00deg) scale(0.91, 0.91) ;}14.00% {transform: translate(0.00px,0.00px) rotate(0.00deg) scale(0.93, 0.93) ;}18.00% {transform: translate(0.00px,0.00px) rotate(0.00deg) scale(0.94, 0.94) ;}22.00% {animation-timing-function: cubic-bezier(0.67,0.66,0.34,0.33);transform: translate(0.00px,0.00px) rotate(0.00deg) scale(0.96, 0.96) ;}26.00% {transform: translate(0.00px,0.00px) rotate(0.00deg) scale(0.97, 0.97) ;}30.00% {transform: translate(0.00px,0.00px) rotate(0.00deg) scale(0.99, 0.99) ;}34.00% {animation-timing-function: cubic-bezier(0.65,0.71,0.32,0.38);transform: translate(0.00px,0.00px) rotate(0.00deg) scale(1.01, 1.01) ;}40.00% {animation-timing-function: cubic-bezier(0.64,0.74,0.31,0.41);transform: translate(0.00px,0.00px) rotate(0.00deg) scale(1.02, 1.02) ;}46.00% {animation-timing-function: cubic-bezier(0.60,0.91,0.23,0.63);transform: translate(0.00px,0.00px) rotate(0.00deg) scale(1.03, 1.03) ;}50.00% {transform: translate(0.00px,0.00px) rotate(0.00deg) scale(1.03, 1.03) ;}54.00% {transform: translate(0.00px,0.00px) rotate(0.00deg) scale(1.03, 1.03) ;}58.00% {animation-timing-function: cubic-bezier(0.69,0.60,0.35,0.27);transform: translate(0.00px,0.00px) rotate(0.00deg) scale(1.03, 1.03) ;}64.00% {transform: translate(0.00px,0.00px) rotate(0.00deg) scale(1.01, 1.01) ;}68.00% {transform: translate(0.00px,0.00px) rotate(0.00deg) scale(1.00, 1.00) ;}72.00% {animation-timing-function: cubic-bezier(0.67,0.66,0.34,0.33);transform: translate(0.00px,0.00px) rotate(0.00deg) scale(0.98, 0.98) ;}76.00% {animation-timing-function: cubic-bezier(0.66,0.68,0.33,0.35);transform: translate(0.00px,0.00px) rotate(0.00deg) scale(0.97, 0.97) ;}82.00% {animation-timing-function: cubic-bezier(0.65,0.71,0.32,0.38);transform: translate(0.00px,0.00px) rotate(0.00deg) scale(0.94, 0.94) ;}88.00% {animation-timing-function: cubic-bezier(0.65,0.73,0.31,0.40);transform: translate(0.00px,0.00px) rotate(0.00deg) scale(0.92, 0.92) ;}94.00% {animation-timing-function: cubic-bezier(0.63,0.80,0.28,0.48);transform: translate(0.00px,0.00px) rotate(0.00deg) scale(0.91, 0.91) ;}100.00% {animation-timing-function: cubic-bezier(0.63,0.80,0.28,0.48);transform: translate(0.00px,0.00px) rotate(0.00deg) scale(0.91, 0.91) ;} }</style><!-- [ldio] generated by https://loading.io --></svg>